<svg width="24" height="24" viewBox="0 0 24 24" fill="none" xmlns="http://www.w3.org/2000/svg">
<path d="M12.7114 6.51429C12.7371 6.58286 12.7371 6.63429 12.7114 6.67714C12.6857 6.72 12.6429 6.73714 12.5657 6.73714C12.4629 6.73714 12.3429 6.72857 12.2229 6.70286C12.1029 6.67714 12.0514 6.65143 12.0686 6.61714C12.1971 6.48857 12.2057 6.39429 12.0943 6.33429C11.9829 6.27429 11.8629 6.24 11.7343 6.24C11.6057 6.24 11.52 6.20571 11.4771 6.16286C11.4343 6.12 11.4514 6.08571 11.52 6.08571C11.5886 6.08571 11.7086 6.08571 11.8629 6.09429C12.0257 6.10286 12.1286 6.12857 12.18 6.16286C12.2314 6.19714 12.3257 6.24857 12.4629 6.32571C12.6 6.40286 12.6857 6.44571 12.7114 6.51429ZM13.6286 11.4429C13.5343 11.4171 13.4571 11.4171 13.4057 11.4429C13.3543 11.4686 13.2943 11.4857 13.2343 11.4857C13.1657 11.4771 13.02 11.4086 12.8057 11.28C12.5914 11.1514 12.3771 11.0914 12.1457 11.0914C12.0514 11.1 12 11.1257 11.9829 11.16C11.9657 11.1943 11.9743 11.22 11.9914 11.2286C12.0086 11.2371 12.0943 11.2543 12.24 11.2714C12.3857 11.2886 12.5829 11.3657 12.8143 11.4943C13.0543 11.6229 13.2257 11.6743 13.3371 11.6571C13.4486 11.64 13.5257 11.6057 13.5771 11.5714C13.6371 11.5629 13.68 11.5457 13.7143 11.52C13.7486 11.4943 13.7229 11.4686 13.6286 11.4429ZM11.6743 5.87143C11.82 5.84571 11.9314 5.76 12 5.61429C12.0257 5.49429 11.9657 5.44286 11.82 5.46C11.6743 5.47714 11.5714 5.52 11.5029 5.57143C11.4943 5.59714 11.4857 5.62286 11.4771 5.64857C11.4686 5.67429 11.46 5.7 11.4514 5.70857L11.3829 5.79429C11.3571 5.82 11.3571 5.83714 11.3657 5.84571C11.4171 5.89714 11.52 5.90571 11.6743 5.87143ZM13.8171 6.06857C13.8 5.93143 13.7229 5.81143 13.5943 5.71714C13.4657 5.62286 13.32 5.55429 13.1657 5.52857C13.0114 5.50286 12.84 5.46857 12.6429 5.42571C12.4457 5.38286 12.3 5.39143 12.1886 5.46C12.0086 5.61429 11.9743 5.72571 12.0857 5.79429C12.1457 5.82 12.2571 5.83714 12.4114 5.84571C12.5657 5.85429 12.7886 5.97429 13.0629 6.19714C13.1571 6.26571 13.3114 6.37714 13.5343 6.51429C13.7571 6.65143 13.9114 6.71143 14.0057 6.67714C14.0571 6.62571 14.04 6.54857 13.9629 6.43714C13.8857 6.32571 13.8343 6.20571 13.8171 6.06857ZM24 12C24 18.6257 18.6257 24 12 24C5.37429 24 0 18.6257 0 12C0 5.37429 5.37429 0 12 0C18.6257 0 24 5.37429 24 12ZM18.8143 12C18.7629 10.0714 18.1029 8.46857 16.8171 7.18286C15.5314 5.89714 13.9286 5.23714 12 5.18571C10.0714 5.23714 8.46857 5.89714 7.18286 7.18286C5.89714 8.46857 5.23714 10.0714 5.18571 12C5.23714 13.9286 5.89714 15.5314 7.18286 16.8171C8.46857 18.1029 10.0714 18.7629 12 18.8143C12.4629 18.8143 12.9086 18.7714 13.3457 18.6943C13.2514 18.6343 13.2 18.4886 13.1914 18.2571C13.1829 18.0257 13.2257 17.8114 13.3286 17.6057C13.4571 17.3829 13.5857 17.0829 13.7229 16.7143C13.8514 16.3457 13.7914 16.0543 13.5257 15.8571C13.2514 15.7029 13.0886 15.5657 13.0371 15.4371C12.9857 15.3086 12.8743 15.1629 12.72 14.9743C12.5657 14.7857 12.48 14.6657 12.48 14.5971V14.4171C12.4714 14.2371 12.5229 14.0486 12.6429 13.8514L12.8571 13.5171C12.8657 13.4829 12.8743 13.4314 12.8743 13.3543V13.1914C12.8657 13.1571 12.8143 13.1143 12.7286 13.0543C12.6429 12.9943 12.5829 12.9686 12.54 12.9686C12.4971 12.9686 12.4629 12.9771 12.4457 13.0114C12.4286 13.0457 12.3857 13.0629 12.3343 13.0629C12.2829 13.0629 12.1886 13.0286 12.0514 12.9514C11.9143 12.8743 11.82 12.8143 11.7771 12.7714C11.7343 12.7286 11.6914 12.6771 11.6571 12.6086C11.6229 12.54 11.58 12.48 11.52 12.42C11.46 12.36 11.4257 12.3343 11.3829 12.3429C11.34 12.3514 11.28 12.3429 11.1857 12.3171L9.94286 11.8371C9.72 11.7429 9.57429 11.64 9.51429 11.52C9.45429 11.4 9.42857 11.2971 9.42857 11.2029C9.42857 11.1086 9.37714 11.0057 9.28286 10.8857L9.03429 10.5686C8.96571 10.4657 8.91429 10.3629 8.88857 10.2771C8.86286 10.1914 8.84571 10.1486 8.83714 10.1657C8.82857 10.2257 8.85429 10.3629 8.92286 10.5771C8.99143 10.7914 9.02571 10.9114 9.00857 10.9457C8.98286 10.9543 8.94857 10.9286 8.90571 10.8514C8.86286 10.7743 8.80286 10.6886 8.74286 10.5943C8.69143 10.5343 8.68286 10.4657 8.70857 10.38C8.73429 10.2943 8.64857 10.0543 8.46 9.65143C8.27143 9.24857 8.23714 8.92286 8.36571 8.66571C8.49429 8.40857 8.57143 8.17714 8.62286 7.96286C8.64857 7.78286 8.7 7.74857 8.78571 7.85143C8.87143 7.95429 8.87143 7.94571 8.80286 7.84286C8.73429 7.68857 8.70857 7.5 8.73429 7.28571C8.76 7.06286 8.74286 6.89143 8.68286 6.76286C8.58857 6.67714 8.42571 6.69429 8.18571 6.80571C7.94571 6.91714 7.81714 6.97714 7.8 6.99429C7.82571 6.89143 7.95429 6.75429 8.19429 6.6L8.94 6.10286C9.16286 5.95714 9.36 5.91429 9.53143 5.95714C9.70286 6 9.88286 6.06 10.0629 6.13714C10.2429 6.21429 10.3543 6.24 10.38 6.22286C10.4057 6.20571 10.3886 6.17143 10.3286 6.11143C10.2686 6.05143 10.2686 6 10.3371 5.97429C10.4057 5.94857 10.5086 5.96571 10.6543 6C10.8 6.02571 10.92 6.09429 11.0143 6.20571C11.1086 6.31714 11.2714 6.36 11.4771 6.35143C11.6829 6.34286 11.7514 6.36 11.6914 6.40286C11.6314 6.44571 11.5971 6.50571 11.5971 6.56571C11.6314 6.61714 11.6143 6.65143 11.5543 6.67714C11.4943 6.70286 11.3829 6.76286 11.2457 6.85714C11.1086 6.95143 11.0914 7.02 11.2029 7.08C11.3143 7.14 11.5114 7.26 11.7771 7.43143C12.0171 7.59429 12.1286 7.59429 12.1286 7.42286C12.1286 7.25143 12.1114 7.08 12.0771 6.9C12.0686 6.78 12.12 6.73714 12.2486 6.78C12.3771 6.82286 12.4371 6.84 12.4543 6.84857C12.6 6.94286 12.6857 6.97714 12.7286 6.94286C12.7714 6.90857 12.84 6.90857 12.9514 6.93429C13.0971 6.99429 13.2686 7.09714 13.4657 7.25143L13.8171 7.53429C13.4486 7.74857 13.3029 7.88571 13.38 7.95429C13.4571 8.02286 13.5514 8.07429 13.6543 8.12571C13.7057 8.17714 13.6714 8.22857 13.5686 8.30571C13.4657 8.38286 13.3971 8.40857 13.3714 8.40857C13.3029 8.34 13.2429 8.32286 13.2 8.36571C13.1571 8.40857 13.1143 8.44286 13.0629 8.47714C13.0114 8.51143 13.0029 8.55429 13.02 8.59714C13.0371 8.64 13.0543 8.67429 13.0629 8.68286C12.8057 8.74286 12.66 8.87143 12.6429 9.06C12.6257 9.24857 12.6257 9.39429 12.6343 9.48C12.6343 9.54857 12.5743 9.63429 12.4543 9.73714C12.3343 9.84 12.2486 9.93429 12.1886 10.0286C12.1629 10.1486 12.1886 10.2771 12.2571 10.4314C12.3257 10.5771 12.3257 10.6629 12.2571 10.6886C12.1886 10.68 12.0686 10.5857 11.9057 10.4143C11.7429 10.2429 11.4343 10.2086 10.98 10.3029C10.8171 10.3371 10.6457 10.44 10.4657 10.6114C10.2857 10.7829 10.2686 11.0314 10.4143 11.3657C10.5943 11.64 10.7829 11.6914 10.9971 11.5286C11.2114 11.3657 11.3657 11.2714 11.4771 11.2629C11.5629 11.3314 11.58 11.4343 11.5286 11.5629C11.4771 11.6914 11.46 11.7686 11.46 11.7943C11.5114 11.7857 11.6057 11.8114 11.7514 11.8714C11.8971 11.9314 11.9914 12.1029 12.0257 12.3686C12.06 12.6343 12.1886 12.7886 12.42 12.84C12.6514 12.8914 12.8057 12.9086 12.9086 12.9C13.0114 12.8914 13.1486 12.8229 13.32 12.6943C13.4914 12.5657 13.5943 12.4886 13.6371 12.4629C13.68 12.4371 13.7829 12.4114 13.9371 12.3771C14.0914 12.3429 14.34 12.4029 14.6571 12.5743C14.9743 12.7457 15.2314 12.84 15.4114 12.8743C15.5914 12.9086 15.7371 12.9686 15.84 13.0457C15.9429 13.1229 15.9943 13.2171 15.9943 13.3286C15.9943 13.44 16.0371 13.5257 16.1143 13.5857C16.2429 13.62 16.4486 13.6457 16.7314 13.6457C17.0143 13.6457 17.22 13.7314 17.3486 13.8857C17.4086 14.1257 17.28 14.5114 16.9543 15.0686C16.6371 15.6171 16.3714 15.9686 16.1571 16.1229C16.0029 16.2257 15.8657 16.3714 15.7457 16.5429C15.6257 16.7143 15.4886 16.8686 15.3257 17.0143C15.1629 17.16 14.9743 17.3057 14.76 17.46C14.5457 17.6143 14.3229 17.7514 14.0914 17.8886C13.9114 18.0171 13.7829 18.1629 13.6971 18.3257C13.6114 18.4886 13.5343 18.6 13.4657 18.6686C15.0171 18.3 16.2771 17.52 17.2629 16.3114C18.2657 15.0857 18.7714 13.6543 18.8143 12Z" fill="white"/>
</svg>
