<svg width="40" height="50" viewBox="0 0 24 24" fill="none" xmlns="http://www.w3.org/2000/svg">
<path d="M20 30C21.375 30 22.5525 29.51 23.5325 28.53C24.5108 27.5517 25 26.375 25 25C25 23.625 24.5108 22.4475 23.5325 21.4675C22.5525 20.4892 21.375 20 20 20C18.625 20 17.4483 20.4892 16.47 21.4675C15.49 22.4475 15 23.625 15 25C15 26.375 15.49 27.5517 16.47 28.53C17.4483 29.51 18.625 30 20 30ZM10 40H30V38.5625C30 37.5625 29.7292 36.6458 29.1875 35.8125C28.6458 34.9792 27.8958 34.3542 26.9375 33.9375C25.8542 33.4792 24.74 33.125 23.595 32.875C22.4483 32.625 21.25 32.5 20 32.5C18.75 32.5 17.5517 32.625 16.405 32.875C15.26 33.125 14.1458 33.4792 13.0625 33.9375C12.1042 34.3542 11.3542 34.9792 10.8125 35.8125C10.2708 36.6458 10 37.5625 10 38.5625V40ZM35 50H5C3.625 50 2.44833 49.5108 1.47 48.5325C0.49 47.5525 0 46.375 0 45V5C0 3.625 0.49 2.4475 1.47 1.4675C2.44833 0.489166 3.625 0 5 0H25L40 15V45C40 46.375 39.5108 47.5525 38.5325 48.5325C37.5525 49.5108 36.375 50 35 50Z" fill="white"/>
</svg>
