<svg width="41" height="51" viewBox="0 0 41 51" fill="none" xmlns="http://www.w3.org/2000/svg">
<path d="M20.3333 30.1667C21.7083 30.1667 22.8858 29.6767 23.8658 28.6967C24.8442 27.7184 25.3333 26.5417 25.3333 25.1667C25.3333 23.7917 24.8442 22.6142 23.8658 21.6342C22.8858 20.6559 21.7083 20.1667 20.3333 20.1667C18.9583 20.1667 17.7817 20.6559 16.8033 21.6342C15.8233 22.6142 15.3333 23.7917 15.3333 25.1667C15.3333 26.5417 15.8233 27.7184 16.8033 28.6967C17.7817 29.6767 18.9583 30.1667 20.3333 30.1667ZM10.3333 40.1667H30.3333V38.7292C30.3333 37.7292 30.0625 36.8125 29.5208 35.9792C28.9792 35.1459 28.2292 34.5209 27.2708 34.1042C26.1875 33.6459 25.0733 33.2917 23.9283 33.0417C22.7817 32.7917 21.5833 32.6667 20.3333 32.6667C19.0833 32.6667 17.885 32.7917 16.7383 33.0417C15.5933 33.2917 14.4792 33.6459 13.3958 34.1042C12.4375 34.5209 11.6875 35.1459 11.1458 35.9792C10.6042 36.8125 10.3333 37.7292 10.3333 38.7292V40.1667ZM35.3333 50.1667H5.33333C3.95833 50.1667 2.78167 49.6775 1.80333 48.6992C0.823334 47.7192 0.333334 46.5417 0.333334 45.1667V5.16669C0.333334 3.79169 0.823334 2.61419 1.80333 1.63419C2.78167 0.655853 3.95833 0.166687 5.33333 0.166687H25.3333L40.3333 15.1667V45.1667C40.3333 46.5417 39.8442 47.7192 38.8658 48.6992C37.8858 49.6775 36.7083 50.1667 35.3333 50.1667Z" fill="white"/>
</svg>
