<svg width="50" height="50" viewBox="0 0 50 50" fill="none" xmlns="http://www.w3.org/2000/svg">
<path d="M25 29.1667C26.1458 29.1667 27.1271 28.7584 27.9438 27.9417C28.759 27.1264 29.1667 26.1459 29.1667 25C29.1667 23.8542 28.759 22.8729 27.9438 22.0563C27.1271 21.241 26.1458 20.8334 25 20.8334C23.8542 20.8334 22.8736 21.241 22.0583 22.0563C21.2417 22.8729 20.8333 23.8542 20.8333 25C20.8333 26.1459 21.2417 27.1264 22.0583 27.9417C22.8736 28.7584 23.8542 29.1667 25 29.1667ZM16.6667 37.5H33.3333V36.3021C33.3333 35.4688 33.1076 34.7049 32.6563 34.0104C32.2049 33.316 31.5799 32.7952 30.7812 32.4479C29.8785 32.066 28.95 31.7709 27.9958 31.5625C27.0403 31.3542 26.0417 31.25 25 31.25C23.9583 31.25 22.9597 31.3542 22.0042 31.5625C21.05 31.7709 20.1215 32.066 19.2188 32.4479C18.4201 32.7952 17.7951 33.316 17.3437 34.0104C16.8924 34.7049 16.6667 35.4688 16.6667 36.3021V37.5ZM37.5 45.8334H12.5C11.3542 45.8334 10.3736 45.4257 9.55833 44.6104C8.74167 43.7938 8.33333 42.8125 8.33333 41.6667V8.33335C8.33333 7.18752 8.74167 6.20627 9.55833 5.3896C10.3736 4.57433 11.3542 4.16669 12.5 4.16669H29.1667L41.6667 16.6667V41.6667C41.6667 42.8125 41.259 43.7938 40.4437 44.6104C39.6271 45.4257 38.6458 45.8334 37.5 45.8334Z" fill="white"/>
</svg>
